<svg width="1000" height="1000" viewBox="0 0 1000 1000" fill="none" xmlns="http://www.w3.org/2000/svg">
<rect width="1000" height="1000" fill="black"/>
<path d="M655.219 379.423C662.638 376.408 669.592 375.299 674.692 378.013C679.795 380.729 682.277 386.431 683.202 393.27C684.128 400.123 683.509 408.247 682.284 416.008C681.835 418.848 681.305 421.643 680.737 424.315C679.202 431.543 681.34 439.063 686.229 444.602C703.664 464.356 713.828 488.086 713.829 513.61C713.829 563.03 675.73 605.725 620.512 625.852C613.851 628.28 609.963 635.501 611.677 642.38C613.098 648.082 614.481 654.068 616.271 660.33C621.594 678.956 621.588 703.705 620.263 723.756C619.6 733.79 618.606 742.664 617.777 749.029C617.362 752.211 616.989 754.768 616.719 756.529C616.584 757.409 616.475 758.09 616.4 758.552C616.362 758.783 616.334 758.959 616.314 759.077C616.304 759.136 616.296 759.182 616.291 759.212C616.289 759.227 616.287 759.239 616.286 759.246C616.285 759.25 616.284 759.253 616.284 759.255C616.284 759.255 616.284 759.255 616.284 759.255C616.284 759.256 616.283 759.257 616.282 759.257C616.271 759.255 616.203 759.244 615.79 759.173L616.058 759.219C616.182 759.241 616.266 759.359 616.244 759.484C616.225 759.593 616.13 759.673 616.019 759.673H612.565C612.51 759.673 612.463 759.714 612.455 759.769C612.447 759.825 612.4 759.866 612.345 759.866H489.725C489.614 759.866 489.519 759.786 489.5 759.676C489.478 759.552 489.561 759.433 489.686 759.412L489.954 759.366C489.541 759.436 489.473 759.448 489.462 759.449C489.461 759.449 489.46 759.449 489.46 759.448C489.46 759.448 489.46 759.448 489.46 759.447C489.46 759.446 489.459 759.442 489.458 759.439C489.457 759.431 489.455 759.42 489.453 759.405C489.447 759.375 489.44 759.329 489.43 759.27C489.41 759.151 489.382 758.975 489.344 758.744C489.269 758.283 489.16 757.601 489.025 756.721C488.755 754.96 488.382 752.404 487.967 749.221C487.138 742.856 486.144 733.982 485.481 723.949C485.213 719.896 481.756 716.799 477.711 716.432C475.082 716.194 472.423 715.771 469.746 715.188C453.807 711.716 437.18 702.575 422.25 692.975C408.295 684.001 396.781 666.27 388.772 650.86C384.761 643.143 381.618 635.984 379.477 630.754C378.406 628.139 377.586 626.006 377.034 624.526C376.757 623.786 376.547 623.208 376.407 622.816C376.336 622.62 376.283 622.47 376.247 622.369C376.23 622.318 376.216 622.279 376.207 622.253C376.203 622.241 376.2 622.231 376.198 622.224C376.197 622.221 376.195 622.219 376.195 622.217C376.194 622.216 376.195 622.215 376.196 622.214L376.666 622.051L376.586 621.558C376.586 621.558 376.586 621.558 376.586 621.558C376.586 621.557 376.587 621.557 376.587 621.557H376.588C376.588 621.557 376.588 621.557 376.588 621.557C376.59 621.557 376.594 621.557 376.597 621.556C376.604 621.555 376.615 621.552 376.629 621.55C376.657 621.546 376.699 621.54 376.752 621.532C376.861 621.515 377.02 621.49 377.225 621.46C377.636 621.4 378.231 621.318 378.972 621.226C380.454 621.042 382.521 620.821 384.859 620.674C389.519 620.381 395.32 620.376 399.724 621.569C408.886 624.05 413.109 630.357 416.912 637.251C420.729 644.169 424.118 651.64 431.575 656.894C445.715 666.857 454.989 672.773 472.126 674.263C472.805 674.322 473.493 674.36 474.188 674.378C481.866 674.578 487.362 667.907 489.473 660.523C491.263 654.26 492.646 648.274 494.067 642.573C495.526 636.717 492.054 630.641 486.291 628.851C426.313 610.217 384.083 565.64 384.083 513.61C384.083 485.509 396.402 459.582 417.182 438.742C422.556 433.352 425.077 425.682 423.787 418.181C423.674 417.524 423.565 416.863 423.46 416.201C422.235 408.439 421.616 400.316 422.542 393.462C423.467 386.624 425.949 380.921 431.052 378.205C436.152 375.492 443.106 376.601 450.525 379.616C457.974 382.643 466.041 387.652 473.471 392.97C473.545 393.023 473.618 393.075 473.691 393.128C479.174 397.063 486.16 398.288 492.669 396.502C510.233 391.683 529.189 389.054 548.956 389.054C570.561 389.054 591.195 392.194 610.102 397.902C616.843 399.937 624.177 398.723 629.843 394.543C630.645 393.952 631.455 393.363 632.273 392.778C639.703 387.46 647.77 382.451 655.219 379.423ZM376.666 622.051L376.45 622.126C376.309 622.175 376.154 622.099 376.105 621.958C376.05 621.799 376.152 621.629 376.318 621.602C376.466 621.578 376.605 621.678 376.629 621.825L376.666 622.051Z" fill="white"/>
<path d="M475.349 189.913C514.315 150.775 577.631 150.634 616.77 189.6L730.351 302.68C745.189 317.452 744.894 341.561 729.7 355.965C715.114 369.793 692.175 369.513 677.932 355.333L583.505 261.323C563.936 241.841 532.277 241.91 512.794 261.48L265.855 509.514C246.373 529.083 246.443 560.741 266.011 580.224L514.046 827.163C533.616 846.646 565.273 846.576 584.756 827.007L678.82 732.525C692.792 718.492 715.407 718.165 729.778 731.789C744.654 745.892 744.995 769.48 730.532 784.008L618.334 896.705C579.369 935.844 516.052 935.984 476.914 897.018L193.446 614.802C154.308 575.836 154.167 512.52 193.132 473.381L475.349 189.913Z" fill="#F89F1B"/>
<mask id="path-3-outside-1_2016_6" maskUnits="userSpaceOnUse" x="160" y="71" width="492" height="688" fill="black">
<rect fill="white" x="160" y="71" width="492" height="688"/>
<path d="M637.502 84.9835C652.146 99.6283 652.146 123.372 637.502 138.017L423.978 351.539C423.791 351.726 423.791 352.03 423.978 352.217C424.165 352.404 424.165 352.706 423.979 352.894L264.855 512.723C245.372 532.292 245.443 563.95 265.011 583.433L373.258 691.202C388.096 705.974 388.122 729.985 373.318 744.79C358.559 759.549 334.638 759.576 319.847 744.85L192.446 618.011C153.308 579.045 153.167 515.729 192.132 476.59L369.469 298.468C369.678 298.258 370.017 298.257 370.227 298.466C370.436 298.675 370.776 298.675 370.985 298.466L584.468 84.9835C599.113 70.3388 622.857 70.3388 637.502 84.9835Z"/>
</mask>
<path d="M637.502 84.9835C652.146 99.6283 652.146 123.372 637.502 138.017L423.978 351.539C423.791 351.726 423.791 352.03 423.978 352.217C424.165 352.404 424.165 352.706 423.979 352.894L264.855 512.723C245.372 532.292 245.443 563.95 265.011 583.433L373.258 691.202C388.096 705.974 388.122 729.985 373.318 744.79C358.559 759.549 334.638 759.576 319.847 744.85L192.446 618.011C153.308 579.045 153.167 515.729 192.132 476.59L369.469 298.468C369.678 298.258 370.017 298.257 370.227 298.466C370.436 298.675 370.776 298.675 370.985 298.466L584.468 84.9835C599.113 70.3388 622.857 70.3388 637.502 84.9835Z" fill="white"/>
<path d="M264.855 512.723L262.729 510.606L262.729 510.606L264.855 512.723ZM265.011 583.433L262.895 585.559L262.895 585.559L265.011 583.433ZM192.446 618.011L190.329 620.137L190.329 620.137L192.446 618.011ZM192.132 476.59L190.006 474.473L190.006 474.473L192.132 476.59ZM370.227 298.466L368.107 300.589L370.227 298.466ZM370.985 298.466L373.106 300.588L370.985 298.466ZM369.469 298.467L371.595 300.584L369.469 298.467ZM423.979 352.894L426.105 355.01L423.979 352.894ZM373.318 744.79L371.196 742.669L373.318 744.79ZM319.847 744.849L317.73 746.976L319.847 744.849ZM423.978 351.539L421.857 349.418L423.978 351.539ZM584.468 84.9835L582.347 82.8622L584.468 84.9835ZM637.502 84.9835L635.38 87.1048L637.502 84.9835ZM637.502 138.017L635.38 135.895L421.857 349.418L423.978 351.539L426.099 353.661L639.623 140.138L637.502 138.017ZM423.979 352.894L421.853 350.777L262.729 510.606L264.855 512.723L266.981 514.839L426.105 355.01L423.979 352.894ZM264.855 512.723L262.729 510.606C242.077 531.35 242.152 564.907 262.895 585.559L265.011 583.433L267.128 581.307C248.733 562.993 248.667 533.234 266.981 514.839L264.855 512.723ZM265.011 583.433L262.895 585.559L371.142 693.328L373.258 691.202L375.375 689.076L267.128 581.307L265.011 583.433ZM319.847 744.849L321.964 742.724L194.563 615.885L192.446 618.011L190.329 620.137L317.73 746.976L319.847 744.849ZM192.446 618.011L194.563 615.885C156.598 578.088 156.462 516.671 194.258 478.707L192.132 476.59L190.006 474.473C149.872 514.786 150.017 580.002 190.329 620.137L192.446 618.011ZM192.132 476.59L194.258 478.707L371.595 300.584L369.469 298.467L367.343 296.351L190.006 474.473L192.132 476.59ZM370.985 298.466L373.106 300.588L586.59 87.1048L584.468 84.9835L582.347 82.8622L368.864 296.345L370.985 298.466ZM370.227 298.466L368.107 300.589C369.488 301.968 371.726 301.968 373.106 300.588L370.985 298.466L368.864 296.345C369.825 295.383 371.385 295.383 372.347 296.344L370.227 298.466ZM369.469 298.467L371.595 300.584C370.633 301.55 369.071 301.552 368.107 300.589L370.227 298.466L372.347 296.344C370.964 294.962 368.722 294.965 367.343 296.351L369.469 298.467ZM423.978 352.217L421.857 354.338C420.874 353.355 420.872 351.762 421.853 350.777L423.979 352.894L426.105 355.01C427.458 353.651 427.456 351.452 426.099 350.096L423.978 352.217ZM373.318 744.79L371.196 742.669C357.607 756.258 335.583 756.282 321.964 742.724L319.847 744.849L317.73 746.976C333.694 762.869 359.511 762.84 375.439 746.911L373.318 744.79ZM423.978 351.539L421.857 349.418C420.498 350.777 420.498 352.98 421.857 354.338L423.978 352.217L426.099 350.096C427.084 351.08 427.084 352.676 426.099 353.661L423.978 351.539ZM373.258 691.202L371.142 693.328C384.803 706.929 384.828 729.037 371.196 742.669L373.318 744.79L375.439 746.911C391.417 730.933 391.388 705.018 375.375 689.076L373.258 691.202ZM584.468 84.9835L586.59 87.1048C600.063 73.6317 621.907 73.6317 635.38 87.1048L637.502 84.9835L639.623 82.8622C623.807 67.0459 598.163 67.0459 582.347 82.8622L584.468 84.9835ZM637.502 138.017L639.623 140.138C655.439 124.322 655.439 98.6785 639.623 82.8622L637.502 84.9835L635.38 87.1048C648.853 100.578 648.853 122.422 635.38 135.895L637.502 138.017Z" fill="white" mask="url(#path-3-outside-1_2016_6)"/>
</svg>
